<mxfile host="app.diagrams.net" modified="2024-03-19T03:31:40.801Z" agent="Mozilla/5.0 (Macintosh; Intel Mac OS X 10_15_7) AppleWebKit/537.36 (KHTML, like Gecko) Chrome/122.0.0.0 Safari/537.36" etag="mvTKxoO1GdJ_bJmZzjFA" version="24.0.7" type="onedrive">
  <diagram name="Page-1" id="0dH9MBnlwDVZBH3vMBDf">
    <mxGraphModel grid="1" page="1" gridSize="10" guides="1" tooltips="1" connect="1" arrows="1" fold="1" pageScale="1" pageWidth="1654" pageHeight="1169" math="0" shadow="0">
      <root>
        <mxCell id="0" />
        <mxCell id="1" parent="0" />
        <mxCell id="KhKjOpdLINkK2g_ZgNnr-5" value="&lt;b&gt;Problem&lt;/b&gt;&lt;div&gt;{abstract}&lt;/div&gt;" style="swimlane;fontStyle=0;align=center;verticalAlign=top;childLayout=stackLayout;horizontal=1;startSize=55;horizontalStack=0;resizeParent=1;resizeParentMax=0;resizeLast=0;collapsible=0;marginBottom=0;html=1;whiteSpace=wrap;" vertex="1" parent="1">
          <mxGeometry x="280" y="210" width="400" height="203" as="geometry" />
        </mxCell>
        <mxCell id="KhKjOpdLINkK2g_ZgNnr-7" value="attribute1" style="text;html=1;strokeColor=none;fillColor=none;align=left;verticalAlign=middle;spacingLeft=4;spacingRight=4;overflow=hidden;rotatable=0;points=[[0,0.5],[1,0.5]];portConstraint=eastwest;whiteSpace=wrap;" vertex="1" parent="KhKjOpdLINkK2g_ZgNnr-5">
          <mxGeometry y="55" width="400" height="20" as="geometry" />
        </mxCell>
        <mxCell id="KhKjOpdLINkK2g_ZgNnr-8" value="inherited attribute2" style="text;html=1;strokeColor=none;fillColor=none;align=left;verticalAlign=middle;spacingLeft=4;spacingRight=4;overflow=hidden;rotatable=0;points=[[0,0.5],[1,0.5]];portConstraint=eastwest;fontColor=#808080;whiteSpace=wrap;" vertex="1" parent="KhKjOpdLINkK2g_ZgNnr-5">
          <mxGeometry y="75" width="400" height="20" as="geometry" />
        </mxCell>
        <mxCell id="KhKjOpdLINkK2g_ZgNnr-9" value="..." style="text;html=1;strokeColor=none;fillColor=none;align=left;verticalAlign=middle;spacingLeft=4;spacingRight=4;overflow=hidden;rotatable=0;points=[[0,0.5],[1,0.5]];portConstraint=eastwest;whiteSpace=wrap;" vertex="1" parent="KhKjOpdLINkK2g_ZgNnr-5">
          <mxGeometry y="95" width="400" height="20" as="geometry" />
        </mxCell>
        <mxCell id="KhKjOpdLINkK2g_ZgNnr-10" value="" style="line;strokeWidth=1;fillColor=none;align=left;verticalAlign=middle;spacingTop=-1;spacingLeft=3;spacingRight=3;rotatable=0;labelPosition=right;points=[];portConstraint=eastwest;" vertex="1" parent="KhKjOpdLINkK2g_ZgNnr-5">
          <mxGeometry y="115" width="400" height="8" as="geometry" />
        </mxCell>
        <mxCell id="KhKjOpdLINkK2g_ZgNnr-11" value="_init_()" style="text;html=1;strokeColor=none;fillColor=none;align=left;verticalAlign=middle;spacingLeft=4;spacingRight=4;overflow=hidden;rotatable=0;points=[[0,0.5],[1,0.5]];portConstraint=eastwest;whiteSpace=wrap;" vertex="1" parent="KhKjOpdLINkK2g_ZgNnr-5">
          <mxGeometry y="123" width="400" height="20" as="geometry" />
        </mxCell>
        <mxCell id="KhKjOpdLINkK2g_ZgNnr-12" value="actions(state): List/&lt;span style=&quot;background-color: initial;&quot;&gt;mapping&lt;/span&gt;&lt;div&gt;&lt;div&gt;&lt;br&gt;&lt;/div&gt;&lt;/div&gt;" style="text;html=1;strokeColor=none;fillColor=none;align=left;verticalAlign=middle;spacingLeft=4;spacingRight=4;overflow=hidden;rotatable=0;points=[[0,0.5],[1,0.5]];portConstraint=eastwest;whiteSpace=wrap;" vertex="1" parent="KhKjOpdLINkK2g_ZgNnr-5">
          <mxGeometry y="143" width="400" height="20" as="geometry" />
        </mxCell>
        <mxCell id="gpYTNN2_0NawyQKFM7cJ-1" value="result(state, action&lt;span style=&quot;background-color: initial;&quot;&gt;): state&lt;/span&gt;" style="text;html=1;strokeColor=none;fillColor=none;align=left;verticalAlign=middle;spacingLeft=4;spacingRight=4;overflow=hidden;rotatable=0;points=[[0,0.5],[1,0.5]];portConstraint=eastwest;whiteSpace=wrap;" vertex="1" parent="KhKjOpdLINkK2g_ZgNnr-5">
          <mxGeometry y="163" width="400" height="20" as="geometry" />
        </mxCell>
        <mxCell id="gpYTNN2_0NawyQKFM7cJ-2" value="result(state, action&lt;span style=&quot;background-color: initial;&quot;&gt;): state&lt;/span&gt;" style="text;html=1;strokeColor=none;fillColor=none;align=left;verticalAlign=middle;spacingLeft=4;spacingRight=4;overflow=hidden;rotatable=0;points=[[0,0.5],[1,0.5]];portConstraint=eastwest;whiteSpace=wrap;" vertex="1" parent="KhKjOpdLINkK2g_ZgNnr-5">
          <mxGeometry y="183" width="400" height="20" as="geometry" />
        </mxCell>
      </root>
    </mxGraphModel>
  </diagram>
</mxfile>
